STARTFONT 2.1
COMMENT Copyright (C) 1990-1991 EWT Consulting
COMMENT Portions Copyright (C) 1994-1995 Cronyx Ltd.
COMMENT Changes Copyright (C) 1996 by Andrey A. Chernov, Moscow, Russia.
COMMENT Modified by Serge Vakulenko, <vak@cronyx.ru>
COMMENT This software may be used, modified, copied, distributed, and sold,
COMMENT in both source and binary form provided that the copyright
COMMENT and these terms are retained. Under no circumstances is the author
COMMENT responsible for the proper functioning of this software, nor does
COMMENT the author assume any responsibility for damages incurred with its use.
COMMENT $XFree86: xc/fonts/bdf/cyrillic/crox5ho.bdf,v 3.2 1996/09/01 12:18:39 dawes Exp $
FONT -Cronyx-Helvetica-Medium-O-Normal--25-180-100-100-P-98-KOI8-R
SIZE 18 96 96
FONTBOUNDINGBOX 33 29 -1 -6
STARTPROPERTIES 19
DEFAULT_CHAR 32
FONT_ASCENT 23
FONT_DESCENT 6
SPACING "P"
FONTNAME_REGISTRY ""
FOUNDRY "Cronyx"
FAMILY_NAME "Helvetica"
WEIGHT_NAME "Medium"
SLANT "O"
SETWIDTH_NAME "Normal"
ADD_STYLE_NAME ""
AVERAGE_WIDTH 98
CHARSET_REGISTRY "KOI8"
CHARSET_ENCODING "R"
PIXEL_SIZE 25
POINT_SIZE 180
RESOLUTION_X 100
RESOLUTION_Y 100
COPYRIGHT "Copyright (C) 1990, 1991 EWT Consulting, Portions Copyright (C) 1994 Cronyx Ltd., Portions Copyright (C) 1996 by Andrey A. Chernov, Moscow, Russia."
ENDPROPERTIES
CHARS 224
STARTCHAR space
ENCODING 32
SWIDTH 206 0
DWIDTH 6 0
BBX 15 29 -1 -6
BITMAP
0000
0000
0000
0000
0000
0000
0000
0000
0000
0000
0000
0000
0000
0000
0000
0000
0000
0000
0000
0000
0000
0000
0000
0000
0000
0000
0000
0000
0000
ENDCHAR
STARTCHAR exclam
ENCODING 33
SWIDTH 206 0
DWIDTH 6 0
BBX 15 29 -1 -6
BITMAP
0000
0000
0000
0000
0000
0000
0030
0030
0060
0060
0060
00C0
00C0
00C0
0180
0180
0180
0300
0300
0000
0000
0600
0600
0000
0000
0000
0000
0000
0000
ENDCHAR
STARTCHAR quotedbl
ENCODING 34
SWIDTH 275 0
DWIDTH 8 0
BBX 17 29 -1 -6
BITMAP
000000
000000
000000
000000
000000
000000
006600
006600
00CC00
00CC00
00CC00
019800
000000
000000
000000
000000
000000
000000
000000
000000
000000
000000
000000
000000
000000
000000
000000
000000
000000
ENDCHAR
STARTCHAR numbersign
ENCODING 35
SWIDTH 448 0
DWIDTH 13 0
BBX 22 29 -1 -6
BITMAP
000000
000000
000000
000000
000000
000000
000660
000660
000CC0
001980
001980
00FFC0
00FFC0
003300
00CC00
00CC00
03FF00
07FE00
019800
019800
066000
066000
066000
000000
000000
000000
000000
000000
000000
ENDCHAR
STARTCHAR dollar
ENCODING 36
SWIDTH 448 0
DWIDTH 13 0
BBX 22 29 -1 -6
BITMAP
000000
000000
000000
000000
000000
000200
000F80
003FE0
0064E0
00C460
00C400
018800
00C800
00FE00
007F00
001300
001180
002300
002300
062300
0E4C00
07FC00
01F000
008000
008000
000000
000000
000000
000000
ENDCHAR
STARTCHAR percent
ENCODING 37
SWIDTH 758 0
DWIDTH 22 0
BBX 31 29 -1 -6
BITMAP
00000000
00000000
00000000
00000000
00000000
00000000
001E0180
003F0180
00E70600
00C30C00
00C30C00
01CE3000
00FC6000
00786000
00018000
00030F00
00031F80
000C7380
00186180
00186180
0060E700
00C07E00
00C03C00
00000000
00000000
00000000
00000000
00000000
00000000
ENDCHAR
STARTCHAR ampersand
ENCODING 38
SWIDTH 551 0
DWIDTH 16 0
BBX 25 29 -1 -6
BITMAP
00000000
00000000
00000000
00000000
00000000
00000000
00070000
000F8000
00318000
00318000
00318000
00360000
003E0000
001C0000
00FC0000
01CC6000
018E6000
060EC000
06078000
06038000
060F0000
07FF8000
01F1C000
00000000
00000000
00000000
00000000
00000000
00000000
ENDCHAR
STARTCHAR quoteright
ENCODING 39
SWIDTH 137 0
DWIDTH 4 0
BBX 13 29 -1 -6
BITMAP
0000
0000
0000
0000
0000
0000
0060
0060
00C0
00C0
00C0
0180
0000
0000
0000
0000
0000
0000
0000
0000
0000
0000
0000
0000
0000
0000
0000
0000
0000
ENDCHAR
STARTCHAR parenleft
ENCODING 40
SWIDTH 275 0
DWIDTH 8 0
BBX 17 29 -1 -6
BITMAP
000000
000000
000000
000000
000000
000000
000600
000C00
001800
003000
003000
006000
00C000
00C000
018000
018000
018000
030000
030000
030000
060000
060000
030000
060000
060000
030000
060000
030000
000000
ENDCHAR
STARTCHAR parenright
ENCODING 41
SWIDTH 275 0
DWIDTH 8 0
BBX 17 29 -1 -6
BITMAP
000000
000000
000000
000000
000000
000000
006000
003000
006000
003000
003000
006000
003000
003000
006000
006000
006000
00C000
00C000
00C000
018000
018000
030000
060000
060000
0C0000
180000
300000
000000
ENDCHAR
STARTCHAR asterisk
ENCODING 42
SWIDTH 344 0
DWIDTH 10 0
BBX 19 29 -1 -6
BITMAP
000000
000000
000000
000000
000000
000000
000400
000400
006B00
003E00
001C00
006C00
004400
000000
000000
000000
000000
000000
000000
000000
000000
000000
000000
000000
000000
000000
000000
000000
000000
ENDCHAR
STARTCHAR plus
ENCODING 43
SWIDTH 482 0
DWIDTH 14 0
BBX 23 29 -1 -6
BITMAP
000000
000000
000000
000000
000000
000000
000000
000000
000000
000600
000600
000C00
000C00
00FFC0
01FF80
001800
001800
003000
003000
000000
000000
000000
000000
000000
000000
000000
000000
000000
000000
ENDCHAR
STARTCHAR comma
ENCODING 44
SWIDTH 206 0
DWIDTH 6 0
BBX 15 29 -1 -6
BITMAP
0000
0000
0000
0000
0000
0000
0000
0000
0000
0000
0000
0000
0000
0000
0000
0000
0000
0000
0000
0000
0000
0600
0600
0400
0800
0000
0000
0000
0000
ENDCHAR
STARTCHAR minus
ENCODING 45
SWIDTH 275 0
DWIDTH 8 0
BBX 17 29 -1 -6
BITMAP
000000
000000
000000
000000
000000
000000
000000
000000
000000
000000
000000
000000
000000
000000
000000
000000
03F000
07E000
000000
000000
000000
000000
000000
000000
000000
000000
000000
000000
000000
ENDCHAR
STARTCHAR period
ENCODING 46
SWIDTH 206 0
DWIDTH 6 0
BBX 15 29 -1 -6
BITMAP
0000
0000
0000
0000
0000
0000
0000
0000
0000
0000
0000
0000
0000
0000
0000
0000
0000
0000
0000
0000
0000
0600
0600
0000
0000
0000
0000
0000
0000
ENDCHAR
STARTCHAR slash
ENCODING 47
SWIDTH 241 0
DWIDTH 7 0
BBX 16 29 -1 -6
BITMAP
0000
0000
0000
0000
0000
0000
0006
0006
0018
0018
0018
0060
0060
0060
0180
0180
0180
0600
0600
0600
1800
1800
1800
0000
0000
0000
0000
0000
0000
ENDCHAR
STARTCHAR zero
ENCODING 48
SWIDTH 448 0
DWIDTH 13 0
BBX 22 29 -1 -6
BITMAP
000000
000000
000000
000000
000000
000000
000700
001FC0
0071C0
0060C0
00C060
0180C0
0180C0
0180C0
030180
030180
030180
060300
060300
030600
071C00
03F800
00E000
000000
000000
000000
000000
000000
000000
ENDCHAR
STARTCHAR one
ENCODING 49
SWIDTH 448 0
DWIDTH 13 0
BBX 22 29 -1 -6
BITMAP
000000
000000
000000
000000
000000
000000
000300
000700
007E00
007E00
000600
000C00
000C00
000C00
001800
001800
001800
003000
003000
003000
006000
006000
006000
000000
000000
000000
000000
000000
000000
ENDCHAR
STARTCHAR two
ENCODING 50
SWIDTH 448 0
DWIDTH 13 0
BBX 22 29 -1 -6
BITMAP
000000
000000
000000
000000
000000
000000
000F80
003FE0
0071C0
00E0E0
00C060
0000C0
0001C0
000380
001F00
003C00
007000
01C000
038000
030000
0E0000
0FFE00
0FFE00
000000
000000
000000
000000
000000
000000
ENDCHAR
STARTCHAR three
ENCODING 51
SWIDTH 448 0
DWIDTH 13 0
BBX 22 29 -1 -6
BITMAP
000000
000000
000000
000000
000000
000000
000F80
003FE0
0071C0
00E0E0
00C060
000180
000380
001F00
003E00
000700
000380
060300
060300
070700
071C00
07FC00
01F000
000000
000000
000000
000000
000000
000000
ENDCHAR
STARTCHAR four
ENCODING 52
SWIDTH 448 0
DWIDTH 13 0
BBX 22 29 -1 -6
BITMAP
000000
000000
000000
000000
000000
000000
0000E0
0001E0
0007C0
0006C0
000EC0
003980
003180
007180
01C300
018300
038300
07FF00
07FF00
000600
000C00
000C00
000C00
000000
000000
000000
000000
000000
000000
ENDCHAR
STARTCHAR five
ENCODING 53
SWIDTH 448 0
DWIDTH 13 0
BBX 22 29 -1 -6
BITMAP
000000
000000
000000
000000
000000
000000
001FF0
001FF0
003000
006000
006000
00C000
01FE00
01FF80
030700
000380
000180
000300
000300
060700
0E1C00
07FC00
01F000
000000
000000
000000
000000
000000
000000
ENDCHAR
STARTCHAR six
ENCODING 54
SWIDTH 448 0
DWIDTH 13 0
BBX 22 29 -1 -6
BITMAP
000000
000000
000000
000000
000000
000000
000780
001FE0
0070C0
006060
00C000
018000
019E00
01FF80
03C700
038380
030180
060300
060300
070700
071C00
07FC00
01F000
000000
000000
000000
000000
000000
000000
ENDCHAR
STARTCHAR seven
ENCODING 55
SWIDTH 448 0
DWIDTH 13 0
BBX 22 29 -1 -6
BITMAP
000000
000000
000000
000000
000000
000000
007FF0
007FF0
0000C0
0001C0
000180
000700
000600
000E00
001800
003800
003000
006000
00E000
00C000
018000
018000
018000
000000
000000
000000
000000
000000
000000
ENDCHAR
STARTCHAR eight
ENCODING 56
SWIDTH 448 0
DWIDTH 13 0
BBX 22 29 -1 -6
BITMAP
000000
000000
000000
000000
000000
000000
000700
001FC0
003180
0060C0
0060C0
00C180
006300
007F00
00FE00
01C700
038380
060300
060300
070700
071C00
07FC00
01F000
000000
000000
000000
000000
000000
000000
ENDCHAR
STARTCHAR nine
ENCODING 57
SWIDTH 448 0
DWIDTH 13 0
BBX 22 29 -1 -6
BITMAP
000000
000000
000000
000000
000000
000000
000F80
003FE0
0071C0
00E0E0
00C060
0180C0
0180C0
01C1C0
01C780
01FF80
007D80
000300
000300
060600
061C00
07F800
01E000
000000
000000
000000
000000
000000
000000
ENDCHAR
STARTCHAR colon
ENCODING 58
SWIDTH 206 0
DWIDTH 6 0
BBX 15 29 -1 -6
BITMAP
0000
0000
0000
0000
0000
0000
0000
0000
0000
0000
0000
00C0
00C0
0000
0000
0000
0000
0000
0000
0000
0000
0600
0600
0000
0000
0000
0000
0000
0000
ENDCHAR
STARTCHAR semicolon
ENCODING 59
SWIDTH 206 0
DWIDTH 6 0
BBX 15 29 -1 -6
BITMAP
0000
0000
0000
0000
0000
0000
0000
0000
0000
0000
0000
00C0
00C0
0000
0000
0000
0000
0000
0000
0000
0000
0600
0600
0400
0800
0000
0000
0000
0000
ENDCHAR
STARTCHAR less
ENCODING 60
SWIDTH 482 0
DWIDTH 14 0
BBX 23 29 -1 -6
BITMAP
000000
000000
000000
000000
000000
000000
000000
000008
000070
0000E0
000380
000E00
003800
007000
038000
038000
00E000
00E000
003800
001C00
000E00
000700
000100
000000
000000
000000
000000
000000
000000
ENDCHAR
STARTCHAR equal
ENCODING 61
SWIDTH 482 0
DWIDTH 14 0
BBX 23 29 -1 -6
BITMAP
000000
000000
000000
000000
000000
000000
000000
000000
000000
000000
00FFF0
01FFE0
000000
000000
000000
000000
03FFC0
07FF80
000000
000000
000000
000000
000000
000000
000000
000000
000000
000000
000000
ENDCHAR
STARTCHAR greater
ENCODING 62
SWIDTH 482 0
DWIDTH 14 0
BBX 23 29 -1 -6
BITMAP
000000
000000
000000
000000
000000
000000
000000
004000
00E000
007000
001C00
001C00
000700
000380
0001C0
0001C0
000700
001C00
007000
00E000
070000
0E0000
080000
000000
000000
000000
000000
000000
000000
ENDCHAR
STARTCHAR question
ENCODING 63
SWIDTH 413 0
DWIDTH 12 0
BBX 21 29 -1 -6
BITMAP
000000
000000
000000
000000
000000
000000
000F00
003FC0
006180
00C0C0
00C0C0
000380
000700
000E00
001800
003000
003000
006000
000000
000000
000000
00C000
00C000
000000
000000
000000
000000
000000
000000
ENDCHAR
STARTCHAR at
ENCODING 64
SWIDTH 827 0
DWIDTH 24 0
BBX 33 29 -1 -6
BITMAP
0000000000
0000000000
0000000000
0000000000
0000000000
0000000000
00007E0000
0001FF8000
000E01C000
0018006000
0030003000
0040F82000
00C3FB3000
00870F1000
030C0C3000
03180C3000
0318183000
0630304000
063060C000
0218618000
063FE70000
020E3C0000
0300000000
0300000000
01C0600000
007FC00000
003E000000
0000000000
0000000000
ENDCHAR
STARTCHAR A
ENCODING 65
SWIDTH 517 0
DWIDTH 15 0
BBX 24 29 -1 -6
BITMAP
000000
000000
000000
000000
000000
000000
000380
000380
000F80
000D80
000D80
003B80
003180
003180
00E380
00C180
01C1C0
03FF80
03FF80
0701C0
0C0180
1C01C0
1C01C0
000000
000000
000000
000000
000000
000000
ENDCHAR
STARTCHAR B
ENCODING 66
SWIDTH 551 0
DWIDTH 16 0
BBX 25 29 -1 -6
BITMAP
00000000
00000000
00000000
00000000
00000000
00000000
003FE000
003FF800
00603000
00601800
00601800
00C03000
00C07000
00FFE000
01FFE000
01806000
01803000
03006000
03006000
03006000
06018000
07FF8000
07FE0000
00000000
00000000
00000000
00000000
00000000
00000000
ENDCHAR
STARTCHAR C
ENCODING 67
SWIDTH 586 0
DWIDTH 17 0
BBX 26 29 -1 -6
BITMAP
00000000
00000000
00000000
00000000
00000000
00000000
0003F800
000FFE00
003C1E00
00700600
00600300
01C00600
01800000
01800000
03000000
03000000
03000000
07001800
03001800
03803000
03C1E000
01FFC000
007F0000
00000000
00000000
00000000
00000000
00000000
00000000
ENDCHAR
STARTCHAR D
ENCODING 68
SWIDTH 586 0
DWIDTH 17 0
BBX 26 29 -1 -6
BITMAP
00000000
00000000
00000000
00000000
00000000
00000000
003FE000
003FF800
00607800
00601C00
00600C00
00C01C00
00C00C00
00C00C00
01801800
01801800
01801800
03007000
03006000
0300E000
06078000
07FF0000
07FC0000
00000000
00000000
00000000
00000000
00000000
00000000
ENDCHAR
STARTCHAR E
ENCODING 69
SWIDTH 551 0
DWIDTH 16 0
BBX 25 29 -1 -6
BITMAP
00000000
00000000
00000000
00000000
00000000
00000000
003FFE00
003FFE00
00600000
00600000
00600000
00C00000
00C00000
00FFE000
01FFC000
01800000
01800000
03000000
03000000
03000000
06000000
07FFC000
07FFC000
00000000
00000000
00000000
00000000
00000000
00000000
ENDCHAR
STARTCHAR F
ENCODING 70
SWIDTH 517 0
DWIDTH 15 0
BBX 24 29 -1 -6
BITMAP
000000
000000
000000
000000
000000
000000
003FFE
003FFE
006000
006000
006000
00C000
00C000
00FFE0
01FFC0
018000
018000
030000
030000
030000
060000
060000
060000
000000
000000
000000
000000
000000
000000
ENDCHAR
STARTCHAR G
ENCODING 71
SWIDTH 620 0
DWIDTH 18 0
BBX 27 29 -1 -6
BITMAP
00000000
00000000
00000000
00000000
00000000
00000000
0003F800
000FFE00
003C1E00
00700600
00600300
01C00600
01800000
01800000
03000000
0301FC00
0301FC00
07001800
03001800
03803800
03C1F000
01FFF000
007F1000
00000000
00000000
00000000
00000000
00000000
00000000
ENDCHAR
STARTCHAR H
ENCODING 72
SWIDTH 586 0
DWIDTH 17 0
BBX 26 29 -1 -6
BITMAP
00000000
00000000
00000000
00000000
00000000
00000000
00300600
00300600
00600C00
00600C00
00600C00
00C01800
00C01800
00FFF800
01FFF000
01803000
01803000
03006000
03006000
03006000
0600C000
0600C000
0600C000
00000000
00000000
00000000
00000000
00000000
00000000
ENDCHAR
STARTCHAR I
ENCODING 73
SWIDTH 206 0
DWIDTH 6 0
BBX 15 29 -1 -6
BITMAP
0000
0000
0000
0000
0000
0000
0030
0030
0060
0060
0060
00C0
00C0
00C0
0180
0180
0180
0300
0300
0300
0600
0600
0600
0000
0000
0000
0000
0000
0000
ENDCHAR
STARTCHAR J
ENCODING 74
SWIDTH 413 0
DWIDTH 12 0
BBX 21 29 -1 -6
BITMAP
000000
000000
000000
000000
000000
000000
0000C0
0000C0
000180
000180
000180
000300
000300
000300
000600
000600
000600
000C00
0C0C00
0C0C00
0C3000
0FF000
03C000
000000
000000
000000
000000
000000
000000
ENDCHAR
STARTCHAR K
ENCODING 75
SWIDTH 551 0
DWIDTH 16 0
BBX 25 29 -1 -6
BITMAP
00000000
00000000
00000000
00000000
00000000
00000000
00300E00
00301C00
00607000
0060E000
0061C000
00C70000
00CE0000
00DF0000
01FE0000
01E70000
01C38000
03030000
03038000
0301C000
06018000
0601C000
0600E000
00000000
00000000
00000000
00000000
00000000
00000000
ENDCHAR
STARTCHAR L
ENCODING 76
SWIDTH 448 0
DWIDTH 13 0
BBX 22 29 -1 -6
BITMAP
000000
000000
000000
000000
000000
000000
003000
003000
006000
006000
006000
00C000
00C000
00C000
018000
018000
018000
030000
030000
030000
060000
07FF00
07FF00
000000
000000
000000
000000
000000
000000
ENDCHAR
STARTCHAR M
ENCODING 77
SWIDTH 689 0
DWIDTH 20 0
BBX 29 29 -1 -6
BITMAP
00000000
00000000
00000000
00000000
00000000
00000000
003000C0
003000C0
00700380
00700380
00780780
00F00F00
00F81F00
00D81B00
01B87600
01986600
019CE600
03198C00
031F8C00
030F0C00
061E1800
060C1800
060C1800
00000000
00000000
00000000
00000000
00000000
00000000
ENDCHAR
STARTCHAR N
ENCODING 78
SWIDTH 620 0
DWIDTH 18 0
BBX 27 29 -1 -6
BITMAP
00000000
00000000
00000000
00000000
00000000
00000000
00300300
00380300
00780600
007C0600
006C0600
00DC0C00
00CE0C00
00C70C00
01861800
01871800
01839800
0303B000
0301B000
0301F000
0601E000
0600E000
06006000
00000000
00000000
00000000
00000000
00000000
00000000
ENDCHAR
STARTCHAR O
ENCODING 79
SWIDTH 655 0
DWIDTH 19 0
BBX 28 29 -1 -6
BITMAP
00000000
00000000
00000000
00000000
00000000
00000000
0003F800
000FFE00
003C1E00
00700700
00600300
01C00700
01800300
01800300
03000600
03000600
03000600
07001C00
03001800
03803800
03C1E000
01FFC000
007F0000
00000000
00000000
00000000
00000000
00000000
00000000
ENDCHAR
STARTCHAR P
ENCODING 80
SWIDTH 551 0
DWIDTH 16 0
BBX 25 29 -1 -6
BITMAP
00000000
00000000
00000000
00000000
00000000
00000000
003FF800
003FFE00
00600C00
00600600
00600600
00C00C00
00C00C00
00C01800
01FFF000
01FFC000
01800000
03000000
03000000
03000000
06000000
06000000
06000000
00000000
00000000
00000000
00000000
00000000
00000000
ENDCHAR
STARTCHAR Q
ENCODING 81
SWIDTH 655 0
DWIDTH 19 0
BBX 28 29 -1 -6
BITMAP
00000000
00000000
00000000
00000000
00000000
00000000
0003F800
000FFE00
003C1E00
00700700
00600300
01C00700
01800300
01800300
03000600
03000600
03000600
07011C00
03039800
0381F800
03C1E000
01FFE000
007F7000
00007000
00002000
00000000
00000000
00000000
00000000
ENDCHAR
STARTCHAR R
ENCODING 82
SWIDTH 586 0
DWIDTH 17 0
BBX 26 29 -1 -6
BITMAP
00000000
00000000
00000000
00000000
00000000
00000000
003FF800
003FFE00
00600C00
00600600
00600600
00C00C00
00C00C00
00C01800
01FFF000
01FFE000
01807000
03006000
03003000
03003000
06006000
06007000
06003000
00000000
00000000
00000000
00000000
00000000
00000000
ENDCHAR
STARTCHAR S
ENCODING 83
SWIDTH 551 0
DWIDTH 16 0
BBX 25 29 -1 -6
BITMAP
00000000
00000000
00000000
00000000
00000000
00000000
0007E000
001FF800
00303800
00601800
00600000
00C00000
00600000
007FC000
003FE000
00006000
00003000
00006000
06006000
07006000
07818000
03FF8000
00FE0000
00000000
00000000
00000000
00000000
00000000
00000000
ENDCHAR
STARTCHAR T
ENCODING 84
SWIDTH 551 0
DWIDTH 16 0
BBX 25 29 -1 -6
BITMAP
00000000
00000000
00000000
00000000
00000000
00000000
00FFFF00
00FFFF00
00030000
00030000
00030000
00060000
00060000
00060000
000C0000
000C0000
000C0000
00180000
00180000
00180000
00300000
00300000
00300000
00000000
00000000
00000000
00000000
00000000
00000000
ENDCHAR
STARTCHAR U
ENCODING 85
SWIDTH 586 0
DWIDTH 17 0
BBX 26 29 -1 -6
BITMAP
00000000
00000000
00000000
00000000
00000000
00000000
00300600
00300600
00600C00
00600C00
00600C00
00C01800
00C01800
00C01800
01803000
01803000
01803000
03006000
03006000
0180C000
03838000
01FF0000
007C0000
00000000
00000000
00000000
00000000
00000000
00000000
ENDCHAR
STARTCHAR V
ENCODING 86
SWIDTH 517 0
DWIDTH 15 0
BBX 24 29 -1 -6
BITMAP
000000
000000
000000
000000
000000
000000
00E00E
00E00E
00C018
00E038
006030
00C060
00E0E0
0060C0
00E380
006300
006300
00EE00
006C00
006C00
00F800
007000
007000
000000
000000
000000
000000
000000
000000
ENDCHAR
STARTCHAR W
ENCODING 87
SWIDTH 758 0
DWIDTH 22 0
BBX 31 29 -1 -6
BITMAP
00000000
00000000
00000000
00000000
00000000
00000000
00C0300C
00C0300C
01C06038
00C0F030
00C0F030
01C3F0E0
00C330C0
00C330C0
01CE7380
00CC3300
00CC3300
01F87E00
00F03C00
00F03C00
00C03000
00C03000
00C03000
00000000
00000000
00000000
00000000
00000000
00000000
ENDCHAR
STARTCHAR X
ENCODING 88
SWIDTH 586 0
DWIDTH 17 0
BBX 26 29 -1 -6
BITMAP
00000000
00000000
00000000
00000000
00000000
00000000
00C00180
00E00380
00E00E00
00701C00
00383800
0038E000
001DC000
000F8000
000E0000
001F0000
003B8000
00E38000
01C1C000
0380E000
0E00E000
1C007000
18003000
00000000
00000000
00000000
00000000
00000000
00000000
ENDCHAR
STARTCHAR Y
ENCODING 89
SWIDTH 551 0
DWIDTH 16 0
BBX 25 29 -1 -6
BITMAP
00000000
00000000
00000000
00000000
00000000
00000000
00C00300
00E00700
00E01C00
00703800
00387000
0039C000
001F8000
000F0000
000C0000
000C0000
000C0000
00180000
00180000
00180000
00300000
00300000
00300000
00000000
00000000
00000000
00000000
00000000
00000000
ENDCHAR
STARTCHAR Z
ENCODING 90
SWIDTH 482 0
DWIDTH 14 0
BBX 23 29 -1 -6
BITMAP
000000
000000
000000
000000
000000
000000
007FF8
007FF8
0000E0
0000C0
0001C0
000700
000600
000E00
003800
007000
006000
01C000
038000
030000
0E0000
1FFF80
1FFF80
000000
000000
000000
000000
000000
000000
ENDCHAR
STARTCHAR bracketleft
ENCODING 91
SWIDTH 241 0
DWIDTH 7 0
BBX 16 29 -1 -6
BITMAP
0000
0000
0000
0000
0000
0000
003C
003C
0060
0060
0060
00C0
00C0
00C0
0180
0180
0180
0300
0300
0300
0600
0600
0600
0C00
0C00
0C00
1E00
1E00
0000
ENDCHAR
STARTCHAR backslash
ENCODING 92
SWIDTH 241 0
DWIDTH 7 0
BBX 16 29 -1 -6
BITMAP
0000
0000
0000
0000
0000
0000
00C0
00C0
00C0
00C0
00C0
00C0
00C0
00C0
00C0
00C0
00C0
00C0
00C0
00C0
00C0
00C0
00C0
0000
0000
0000
0000
0000
0000
ENDCHAR
STARTCHAR bracketright
ENCODING 93
SWIDTH 241 0
DWIDTH 7 0
BBX 16 29 -1 -6
BITMAP
0000
0000
0000
0000
0000
0000
0078
0078
0030
0030
0030
0060
0060
0060
00C0
00C0
00C0
0180
0180
0180
0300
0300
0300
0600
0600
0600
3C00
3C00
0000
ENDCHAR
STARTCHAR asciicircum
ENCODING 94
SWIDTH 379 0
DWIDTH 11 0
BBX 20 29 -1 -6
BITMAP
000000
000000
000000
000000
000000
000000
000E00
001F00
007700
00C180
000000
000000
000000
000000
000000
000000
000000
000000
000000
000000
000000
000000
000000
000000
000000
000000
000000
000000
000000
ENDCHAR
STARTCHAR underscore
ENCODING 95
SWIDTH 448 0
DWIDTH 13 0
BBX 22 29 -1 -6
BITMAP
000000
000000
000000
000000
000000
000000
000000
000000
000000
000000
000000
000000
000000
000000
000000
000000
000000
000000
000000
000000
000000
000000
000000
000000
3FFE00
3FFE00
000000
000000
000000
ENDCHAR
STARTCHAR quoteleft
ENCODING 96
SWIDTH 275 0
DWIDTH 8 0
BBX 17 29 -1 -6
BITMAP
000000
000000
000000
000000
000000
000000
007000
003800
001800
000400
000000
000000
000000
000000
000000
000000
000000
000000
000000
000000
000000
000000
000000
000000
000000
000000
000000
000000
000000
ENDCHAR
STARTCHAR a
ENCODING 97
SWIDTH 448 0
DWIDTH 13 0
BBX 22 29 -1 -6
BITMAP
000000
000000
000000
000000
000000
000000
000000
000000
000000
000000
000000
003C00
00FF00
00C300
000300
000700
007F00
03F600
070600
060600
0E1C00
07FF00
03E700
000000
000000
000000
000000
000000
000000
ENDCHAR
STARTCHAR b
ENCODING 98
SWIDTH 482 0
DWIDTH 14 0
BBX 23 29 -1 -6
BITMAP
000000
000000
000000
000000
000000
000000
003000
003000
006000
006000
006000
00DF00
00FFC0
00E1C0
0181C0
0180C0
0180C0
030180
030180
030380
070E00
07FE00
06F800
000000
000000
000000
000000
000000
000000
ENDCHAR
STARTCHAR c
ENCODING 99
SWIDTH 413 0
DWIDTH 12 0
BBX 21 29 -1 -6
BITMAP
000000
000000
000000
000000
000000
000000
000000
000000
000000
000000
000000
001E00
007F80
00E1C0
018180
030000
030000
060000
060000
030300
070E00
03FC00
00F000
000000
000000
000000
000000
000000
000000
ENDCHAR
STARTCHAR d
ENCODING 100
SWIDTH 482 0
DWIDTH 14 0
BBX 23 29 -1 -6
BITMAP
000000
000000
000000
000000
000000
000000
000030
000030
000060
000060
000060
003EC0
00FFC0
00E1C0
038180
030180
030180
060300
060300
070300
070E00
07FE00
01F600
000000
000000
000000
000000
000000
000000
ENDCHAR
STARTCHAR e
ENCODING 101
SWIDTH 482 0
DWIDTH 14 0
BBX 23 29 -1 -6
BITMAP
000000
000000
000000
000000
000000
000000
000000
000000
000000
000000
000000
001E00
007F80
00E1C0
018180
0300C0
03FFC0
07FF80
060000
030000
070700
03FE00
00F800
000000
000000
000000
000000
000000
000000
ENDCHAR
STARTCHAR f
ENCODING 102
SWIDTH 206 0
DWIDTH 6 0
BBX 15 29 -1 -6
BITMAP
0000
0000
0000
0000
0000
0000
001C
003C
0060
0060
0060
03F0
03F0
00C0
0180
0180
0180
0300
0300
0300
0600
0600
0600
0000
0000
0000
0000
0000
0000
ENDCHAR
STARTCHAR g
ENCODING 103
SWIDTH 482 0
DWIDTH 14 0
BBX 23 29 -1 -6
BITMAP
000000
000000
000000
000000
000000
000000
000000
000000
000000
000000
000000
003EC0
00FFC0
00E1C0
038180
030180
030180
060300
060300
070300
070E00
07FE00
01F600
000C00
000C00
0C1800
1FF000
07C000
000000
ENDCHAR
STARTCHAR h
ENCODING 104
SWIDTH 448 0
DWIDTH 13 0
BBX 22 29 -1 -6
BITMAP
000000
000000
000000
000000
000000
000000
003000
003000
006000
006000
006000
00DC00
00FF00
00E300
018300
018300
018300
030600
030600
030600
060C00
060C00
060C00
000000
000000
000000
000000
000000
000000
ENDCHAR
STARTCHAR i
ENCODING 105
SWIDTH 206 0
DWIDTH 6 0
BBX 15 29 -1 -6
BITMAP
0000
0000
0000
0000
0000
0000
0030
0030
0000
0000
0000
00C0
00C0
00C0
0180
0180
0180
0300
0300
0300
0600
0600
0600
0000
0000
0000
0000
0000
0000
ENDCHAR
STARTCHAR j
ENCODING 106
SWIDTH 206 0
DWIDTH 6 0
BBX 15 29 -1 -6
BITMAP
0000
0000
0000
0000
0000
0000
0030
0030
0000
0000
0000
00C0
00C0
00C0
0180
0180
0180
0300
0300
0300
0600
0600
0600
0C00
0C00
0C00
7800
7000
0000
ENDCHAR
STARTCHAR k
ENCODING 107
SWIDTH 413 0
DWIDTH 12 0
BBX 21 29 -1 -6
BITMAP
000000
000000
000000
000000
000000
000000
003000
003000
006000
006000
006000
00C380
00C700
00CE00
01B800
01F000
01F800
03B800
031800
031C00
061C00
060C00
060E00
000000
000000
000000
000000
000000
000000
ENDCHAR
STARTCHAR l
ENCODING 108
SWIDTH 206 0
DWIDTH 6 0
BBX 15 29 -1 -6
BITMAP
0000
0000
0000
0000
0000
0000
0030
0030
0060
0060
0060
00C0
00C0
00C0
0180
0180
0180
0300
0300
0300
0600
0600
0600
0000
0000
0000
0000
0000
0000
ENDCHAR
STARTCHAR m
ENCODING 109
SWIDTH 689 0
DWIDTH 20 0
BBX 29 29 -1 -6
BITMAP
00000000
00000000
00000000
00000000
00000000
00000000
00000000
00000000
00000000
00000000
00000000
00DE3C00
00FF7E00
00E3C600
01830600
01830600
01830600
03060C00
03060C00
03060C00
060C1800
060C1800
060C1800
00000000
00000000
00000000
00000000
00000000
00000000
ENDCHAR
STARTCHAR n
ENCODING 110
SWIDTH 448 0
DWIDTH 13 0
BBX 22 29 -1 -6
BITMAP
000000
000000
000000
000000
000000
000000
000000
000000
000000
000000
000000
00DC00
00FF00
00E300
018300
018300
018300
030600
030600
030600
060C00
060C00
060C00
000000
000000
000000
000000
000000
000000
ENDCHAR
STARTCHAR o
ENCODING 111
SWIDTH 482 0
DWIDTH 14 0
BBX 23 29 -1 -6
BITMAP
000000
000000
000000
000000
000000
000000
000000
000000
000000
000000
000000
003F00
00FFC0
00E1C0
0381C0
0300C0
0300C0
060180
060180
070380
070E00
07FE00
01F800
000000
000000
000000
000000
000000
000000
ENDCHAR
STARTCHAR p
ENCODING 112
SWIDTH 482 0
DWIDTH 14 0
BBX 23 29 -1 -6
BITMAP
000000
000000
000000
000000
000000
000000
000000
000000
000000
000000
000000
00DF00
00FFC0
00E1C0
0181C0
0180C0
0180C0
030180
030180
030380
070E00
07FE00
06F800
0C0000
0C0000
0C0000
180000
180000
000000
ENDCHAR
STARTCHAR q
ENCODING 113
SWIDTH 482 0
DWIDTH 14 0
BBX 23 29 -1 -6
BITMAP
000000
000000
000000
000000
000000
000000
000000
000000
000000
000000
000000
003EC0
00FFC0
00E1C0
038180
030180
030180
060300
060300
070300
070E00
07FE00
01F600
000C00
000C00
000C00
001800
001800
000000
ENDCHAR
STARTCHAR r
ENCODING 114
SWIDTH 275 0
DWIDTH 8 0
BBX 17 29 -1 -6
BITMAP
000000
000000
000000
000000
000000
000000
000000
000000
000000
000000
000000
00CC00
00DC00
00F000
01C000
018000
018000
030000
030000
030000
060000
060000
060000
000000
000000
000000
000000
000000
000000
ENDCHAR
STARTCHAR s
ENCODING 115
SWIDTH 413 0
DWIDTH 12 0
BBX 21 29 -1 -6
BITMAP
000000
000000
000000
000000
000000
000000
000000
000000
000000
000000
000000
007C00
00FF00
01C300
030000
03C000
01FC00
00FC00
001E00
000600
0C1C00
0FF800
03F000
000000
000000
000000
000000
000000
000000
ENDCHAR
STARTCHAR t
ENCODING 116
SWIDTH 206 0
DWIDTH 6 0
BBX 15 29 -1 -6
BITMAP
0000
0000
0000
0000
0000
0000
0000
0000
0060
0060
0060
03F0
03F0
00C0
0180
0180
0180
0300
0300
0300
0600
0780
0380
0000
0000
0000
0000
0000
0000
ENDCHAR
STARTCHAR u
ENCODING 117
SWIDTH 448 0
DWIDTH 13 0
BBX 22 29 -1 -6
BITMAP
000000
000000
000000
000000
000000
000000
000000
000000
000000
000000
000000
00C180
00C180
00C180
018300
018300
018300
030600
030600
030600
031C00
03FC00
00EC00
000000
000000
000000
000000
000000
000000
ENDCHAR
STARTCHAR v
ENCODING 118
SWIDTH 379 0
DWIDTH 11 0
BBX 20 29 -1 -6
BITMAP
000000
000000
000000
000000
000000
000000
000000
000000
000000
000000
000000
030180
030180
038380
030600
038E00
018C00
031800
03B800
01B000
03E000
01C000
01C000
000000
000000
000000
000000
000000
000000
ENDCHAR
STARTCHAR w
ENCODING 119
SWIDTH 620 0
DWIDTH 18 0
BBX 27 29 -1 -6
BITMAP
00000000
00000000
00000000
00000000
00000000
00000000
00000000
00000000
00000000
00000000
00000000
03030300
03030300
03878700
030F0C00
039F9C00
01999800
03333000
03F3F000
01E1E000
03C3C000
01818000
01818000
00000000
00000000
00000000
00000000
00000000
00000000
ENDCHAR
STARTCHAR x
ENCODING 120
SWIDTH 379 0
DWIDTH 11 0
BBX 20 29 -1 -6
BITMAP
000000
000000
000000
000000
000000
000000
000000
000000
000000
000000
000000
030180
038380
01C700
01DC00
00F800
007000
00E000
01F000
03B800
0E3800
1C1C00
180C00
000000
000000
000000
000000
000000
000000
ENDCHAR
STARTCHAR y
ENCODING 121
SWIDTH 379 0
DWIDTH 11 0
BBX 20 29 -1 -6
BITMAP
000000
000000
000000
000000
000000
000000
000000
000000
000000
000000
000000
030180
030180
038380
030600
038E00
018C00
031800
03B800
01B000
03E000
01C000
01C000
030000
070000
060000
7C0000
780000
000000
ENDCHAR
STARTCHAR z
ENCODING 122
SWIDTH 379 0
DWIDTH 11 0
BBX 20 29 -1 -6
BITMAP
000000
000000
000000
000000
000000
000000
000000
000000
000000
000000
000000
01FF80
01FF80
000700
001C00
003800
007000
00E000
01C000
038000
0E0000
1FFC00
1FFC00
000000
000000
000000
000000
000000
000000
ENDCHAR
STARTCHAR braceleft
ENCODING 123
SWIDTH 310 0
DWIDTH 9 0
BBX 18 29 -1 -6
BITMAP
000000
000000
000000
000000
000000
000000
000600
000E00
003800
003000
003000
006000
006000
006000
00C000
018000
030000
060000
030000
018000
030000
030000
030000
060000
060000
070000
070000
030000
000000
ENDCHAR
STARTCHAR bar
ENCODING 124
SWIDTH 206 0
DWIDTH 6 0
BBX 15 29 -1 -6
BITMAP
0000
0000
0000
0000
0000
0000
0030
0030
0060
0060
0060
00C0
00C0
00C0
0180
0180
0000
0000
0000
0300
0600
0600
0600
0C00
0C00
0C00
1800
1800
1800
ENDCHAR
STARTCHAR braceright
ENCODING 125
SWIDTH 310 0
DWIDTH 9 0
BBX 18 29 -1 -6
BITMAP
000000
000000
000000
000000
000000
000000
006000
007000
006000
003000
003000
006000
006000
006000
00C000
006000
003000
006000
00C000
018000
030000
030000
030000
060000
060000
0C0000
380000
300000
000000
ENDCHAR
STARTCHAR asciitilde
ENCODING 126
SWIDTH 482 0
DWIDTH 14 0
BBX 23 29 -1 -6
BITMAP
000000
000000
000000
000000
000000
000000
003C30
007F30
00CFE0
00C3C0
000000
000000
000000
000000
000000
000000
000000
000000
000000
000000
000000
000000
000000
000000
000000
000000
000000
000000
000000
ENDCHAR
STARTCHAR C177
ENCODING -1
SWIDTH 275 0
DWIDTH 8 0
BBX 17 29 -1 -6
BITMAP
000000
000000
000000
000000
000000
000000
003C00
003C00
007800
007800
007800
00F000
00F000
00F000
01E000
01E000
01E000
03C000
03C000
03C000
078000
078000
078000
000000
000000
000000
000000
000000
000000
ENDCHAR
STARTCHAR C200
ENCODING -1
SWIDTH 275 0
DWIDTH 8 0
BBX 17 29 -1 -6
BITMAP
000000
000000
000000
000000
000000
000000
003C00
003C00
007800
007800
007800
00F000
00F000
00F000
01E000
01E000
01E000
03C000
03C000
03C000
078000
078000
078000
000000
000000
000000
000000
000000
000000
ENDCHAR
STARTCHAR C201
ENCODING -1
SWIDTH 275 0
DWIDTH 8 0
BBX 17 29 -1 -6
BITMAP
000000
000000
000000
000000
000000
000000
003C00
003C00
007800
007800
007800
00F000
00F000
00F000
01E000
01E000
01E000
03C000
03C000
03C000
078000
078000
078000
000000
000000
000000
000000
000000
000000
ENDCHAR
STARTCHAR C202
ENCODING -1
SWIDTH 275 0
DWIDTH 8 0
BBX 17 29 -1 -6
BITMAP
000000
000000
000000
000000
000000
000000
003C00
003C00
007800
007800
007800
00F000
00F000
00F000
01E000
01E000
01E000
03C000
03C000
03C000
078000
078000
078000
000000
000000
000000
000000
000000
000000
ENDCHAR
STARTCHAR C203
ENCODING -1
SWIDTH 275 0
DWIDTH 8 0
BBX 17 29 -1 -6
BITMAP
000000
000000
000000
000000
000000
000000
003C00
003C00
007800
007800
007800
00F000
00F000
00F000
01E000
01E000
01E000
03C000
03C000
03C000
078000
078000
078000
000000
000000
000000
000000
000000
000000
ENDCHAR
STARTCHAR C204
ENCODING -1
SWIDTH 275 0
DWIDTH 8 0
BBX 17 29 -1 -6
BITMAP
000000
000000
000000
000000
000000
000000
003C00
003C00
007800
007800
007800
00F000
00F000
00F000
01E000
01E000
01E000
03C000
03C000
03C000
078000
078000
078000
000000
000000
000000
000000
000000
000000
ENDCHAR
STARTCHAR C205
ENCODING -1
SWIDTH 275 0
DWIDTH 8 0
BBX 17 29 -1 -6
BITMAP
000000
000000
000000
000000
000000
000000
003C00
003C00
007800
007800
007800
00F000
00F000
00F000
01E000
01E000
01E000
03C000
03C000
03C000
078000
078000
078000
000000
000000
000000
000000
000000
000000
ENDCHAR
STARTCHAR C206
ENCODING -1
SWIDTH 275 0
DWIDTH 8 0
BBX 17 29 -1 -6
BITMAP
000000
000000
000000
000000
000000
000000
003C00
003C00
007800
007800
007800
00F000
00F000
00F000
01E000
01E000
01E000
03C000
03C000
03C000
078000
078000
078000
000000
000000
000000
000000
000000
000000
ENDCHAR
STARTCHAR C207
ENCODING -1
SWIDTH 275 0
DWIDTH 8 0
BBX 17 29 -1 -6
BITMAP
000000
000000
000000
000000
000000
000000
003C00
003C00
007800
007800
007800
00F000
00F000
00F000
01E000
01E000
01E000
03C000
03C000
03C000
078000
078000
078000
000000
000000
000000
000000
000000
000000
ENDCHAR
STARTCHAR C210
ENCODING -1
SWIDTH 275 0
DWIDTH 8 0
BBX 17 29 -1 -6
BITMAP
000000
000000
000000
000000
000000
000000
003C00
003C00
007800
007800
007800
00F000
00F000
00F000
01E000
01E000
01E000
03C000
03C000
03C000
078000
078000
078000
000000
000000
000000
000000
000000
000000
ENDCHAR
STARTCHAR C211
ENCODING -1
SWIDTH 275 0
DWIDTH 8 0
BBX 17 29 -1 -6
BITMAP
000000
000000
000000
000000
000000
000000
003C00
003C00
007800
007800
007800
00F000
00F000
00F000
01E000
01E000
01E000
03C000
03C000
03C000
078000
078000
078000
000000
000000
000000
000000
000000
000000
ENDCHAR
STARTCHAR C212
ENCODING -1
SWIDTH 275 0
DWIDTH 8 0
BBX 17 29 -1 -6
BITMAP
000000
000000
000000
000000
000000
000000
003C00
003C00
007800
007800
007800
00F000
00F000
00F000
01E000
01E000
01E000
03C000
03C000
03C000
078000
078000
078000
000000
000000
000000
000000
000000
000000
ENDCHAR
STARTCHAR C213
ENCODING -1
SWIDTH 275 0
DWIDTH 8 0
BBX 17 29 -1 -6
BITMAP
000000
000000
000000
000000
000000
000000
003C00
003C00
007800
007800
007800
00F000
00F000
00F000
01E000
01E000
01E000
03C000
03C000
03C000
078000
078000
078000
000000
000000
000000
000000
000000
000000
ENDCHAR
STARTCHAR C214
ENCODING -1
SWIDTH 275 0
DWIDTH 8 0
BBX 17 29 -1 -6
BITMAP
000000
000000
000000
000000
000000
000000
003C00
003C00
007800
007800
007800
00F000
00F000
00F000
01E000
01E000
01E000
03C000
03C000
03C000
078000
078000
078000
000000
000000
000000
000000
000000
000000
ENDCHAR
STARTCHAR C215
ENCODING -1
SWIDTH 275 0
DWIDTH 8 0
BBX 17 29 -1 -6
BITMAP
000000
000000
000000
000000
000000
000000
003C00
003C00
007800
007800
007800
00F000
00F000
00F000
01E000
01E000
01E000
03C000
03C000
03C000
078000
078000
078000
000000
000000
000000
000000
000000
000000
ENDCHAR
STARTCHAR C216
ENCODING -1
SWIDTH 275 0
DWIDTH 8 0
BBX 17 29 -1 -6
BITMAP
000000
000000
000000
000000
000000
000000
003C00
003C00
007800
007800
007800
00F000
00F000
00F000
01E000
01E000
01E000
03C000
03C000
03C000
078000
078000
078000
000000
000000
000000
000000
000000
000000
ENDCHAR
STARTCHAR C217
ENCODING -1
SWIDTH 275 0
DWIDTH 8 0
BBX 17 29 -1 -6
BITMAP
000000
000000
000000
000000
000000
000000
003C00
003C00
007800
007800
007800
00F000
00F000
00F000
01E000
01E000
01E000
03C000
03C000
03C000
078000
078000
078000
000000
000000
000000
000000
000000
000000
ENDCHAR
STARTCHAR C220
ENCODING -1
SWIDTH 275 0
DWIDTH 8 0
BBX 17 29 -1 -6
BITMAP
000000
000000
000000
000000
000000
000000
003C00
003C00
007800
007800
007800
00F000
00F000
00F000
01E000
01E000
01E000
03C000
03C000
03C000
078000
078000
078000
000000
000000
000000
000000
000000
000000
ENDCHAR
STARTCHAR C221
ENCODING -1
SWIDTH 206 0
DWIDTH 6 0
BBX 15 29 -1 -6
BITMAP
0000
0000
0000
0000
0000
0000
0020
0040
00C0
00C0
0000
0000
0000
0000
0000
0000
0000
0000
0000
0000
0000
0000
0000
0000
0000
0000
0000
0000
0000
ENDCHAR
STARTCHAR C222
ENCODING -1
SWIDTH 206 0
DWIDTH 6 0
BBX 15 29 -1 -6
BITMAP
0000
0000
0000
0000
0000
0000
0018
0018
0010
0020
0000
0000
0000
0000
0000
0000
0000
0000
0000
0000
0000
0000
0000
0000
0000
0000
0000
0000
0000
ENDCHAR
STARTCHAR C223
ENCODING -1
SWIDTH 275 0
DWIDTH 8 0
BBX 17 29 -1 -6
BITMAP
000000
000000
000000
000000
000000
000000
003C00
003C00
007800
007800
007800
00F000
00F000
00F000
01E000
01E000
01E000
03C000
03C000
03C000
078000
078000
078000
000000
000000
000000
000000
000000
000000
ENDCHAR
STARTCHAR C224
ENCODING -1
SWIDTH 275 0
DWIDTH 8 0
BBX 17 29 -1 -6
BITMAP
000000
000000
000000
000000
000000
000000
003C00
003C00
007800
007800
007800
00F000
00F000
00F000
01E000
01E000
01E000
03C000
03C000
03C000
078000
078000
078000
000000
000000
000000
000000
000000
000000
ENDCHAR
STARTCHAR C225
ENCODING -1
SWIDTH 275 0
DWIDTH 8 0
BBX 17 29 -1 -6
BITMAP
000000
000000
000000
000000
000000
000000
003C00
003C00
007800
007800
007800
00F000
00F000
00F000
01E000
01E000
01E000
03C000
03C000
03C000
078000
078000
078000
000000
000000
000000
000000
000000
000000
ENDCHAR
STARTCHAR C226
ENCODING -1
SWIDTH 275 0
DWIDTH 8 0
BBX 17 29 -1 -6
BITMAP
000000
000000
000000
000000
000000
000000
003C00
003C00
007800
007800
007800
00F000
00F000
00F000
01E000
01E000
01E000
03C000
03C000
03C000
078000
078000
078000
000000
000000
000000
000000
000000
000000
ENDCHAR
STARTCHAR C227
ENCODING -1
SWIDTH 275 0
DWIDTH 8 0
BBX 17 29 -1 -6
BITMAP
000000
000000
000000
000000
000000
000000
003C00
003C00
007800
007800
007800
00F000
00F000
00F000
01E000
01E000
01E000
03C000
03C000
03C000
078000
078000
078000
000000
000000
000000
000000
000000
000000
ENDCHAR
STARTCHAR C230
ENCODING -1
SWIDTH 275 0
DWIDTH 8 0
BBX 17 29 -1 -6
BITMAP
000000
000000
000000
000000
000000
000000
003C00
003C00
007800
007800
007800
00F000
00F000
00F000
01E000
01E000
01E000
03C000
03C000
03C000
078000
078000
078000
000000
000000
000000
000000
000000
000000
ENDCHAR
STARTCHAR C231
ENCODING -1
SWIDTH 275 0
DWIDTH 8 0
BBX 17 29 -1 -6
BITMAP
000000
000000
000000
000000
000000
000000
003C00
003C00
007800
007800
007800
00F000
00F000
00F000
01E000
01E000
01E000
03C000
03C000
03C000
078000
078000
078000
000000
000000
000000
000000
000000
000000
ENDCHAR
STARTCHAR C232
ENCODING -1
SWIDTH 275 0
DWIDTH 8 0
BBX 17 29 -1 -6
BITMAP
000000
000000
000000
000000
000000
000000
003C00
003C00
007800
007800
007800
00F000
00F000
00F000
01E000
01E000
01E000
03C000
03C000
03C000
078000
078000
078000
000000
000000
000000
000000
000000
000000
ENDCHAR
STARTCHAR C233
ENCODING -1
SWIDTH 275 0
DWIDTH 8 0
BBX 17 29 -1 -6
BITMAP
000000
000000
000000
000000
000000
000000
003C00
003C00
007800
007800
007800
00F000
00F000
00F000
01E000
01E000
01E000
03C000
03C000
03C000
078000
078000
078000
000000
000000
000000
000000
000000
000000
ENDCHAR
STARTCHAR C234
ENCODING 176
SWIDTH 275 0
DWIDTH 8 0
BBX 17 29 -1 -6
BITMAP
000000
000000
000000
000000
000000
000000
003C00
003C00
007800
007800
007800
00F000
00F000
00F000
01E000
01E000
01E000
03C000
03C000
03C000
078000
078000
078000
000000
000000
000000
000000
000000
000000
ENDCHAR
STARTCHAR C235
ENCODING 178
SWIDTH 275 0
DWIDTH 8 0
BBX 17 29 -1 -6
BITMAP
000000
000000
000000
000000
000000
000000
003C00
003C00
007800
007800
007800
00F000
00F000
00F000
01E000
01E000
01E000
03C000
03C000
03C000
078000
078000
078000
000000
000000
000000
000000
000000
000000
ENDCHAR
STARTCHAR C236
ENCODING -1
SWIDTH 275 0
DWIDTH 8 0
BBX 17 29 -1 -6
BITMAP
000000
000000
000000
000000
000000
000000
003C00
003C00
007800
007800
007800
00F000
00F000
00F000
01E000
01E000
01E000
03C000
03C000
03C000
078000
078000
078000
000000
000000
000000
000000
000000
000000
ENDCHAR
STARTCHAR C237
ENCODING -1
SWIDTH 275 0
DWIDTH 8 0
BBX 17 29 -1 -6
BITMAP
000000
000000
000000
000000
000000
000000
003C00
003C00
007800
007800
007800
00F000
00F000
00F000
01E000
01E000
01E000
03C000
03C000
03C000
078000
078000
078000
000000
000000
000000
000000
000000
000000
ENDCHAR
STARTCHAR C240
ENCODING 160
SWIDTH 206 0
DWIDTH 6 0
BBX 15 29 -1 -6
BITMAP
0000
0000
0000
0000
0000
0000
0000
0000
0000
0000
0000
0000
0000
0000
0000
0000
0000
0000
0000
0000
0000
0000
0000
0000
0000
0000
0000
0000
0000
ENDCHAR
STARTCHAR exclamdown
ENCODING 161
SWIDTH 206 0
DWIDTH 6 0
BBX 15 29 -1 -6
BITMAP
0000
0000
0000
0000
0000
0000
0030
0030
0000
0000
0060
00C0
00C0
00C0
0180
0180
0180
0300
0300
0300
0600
0600
0600
0000
0000
0000
0000
0000
0000
ENDCHAR
STARTCHAR cent
ENCODING 162
SWIDTH 448 0
DWIDTH 13 0
BBX 22 29 -1 -6
BITMAP
000000
000000
000000
000000
000000
000000
000000
000000
000000
000080
000180
001E00
007F80
00E7C0
018980
031800
031000
062000
066000
034300
078E00
03FC00
01F000
060000
040000
000000
000000
000000
000000
ENDCHAR
STARTCHAR sterling
ENCODING 163
SWIDTH 448 0
DWIDTH 13 0
BBX 22 29 -1 -6
BITMAP
000000
000000
000000
000000
000000
000000
0007C0
000FE0
0038E0
003060
003000
006000
006000
01FC00
03F800
006000
006000
00C000
00C000
018000
07E600
0FFE00
067C00
000000
000000
000000
000000
000000
000000
ENDCHAR
STARTCHAR currency
ENCODING 164
SWIDTH 448 0
DWIDTH 13 0
BBX 22 29 -1 -6
BITMAP
000000
000000
000000
000000
000000
000000
000000
002020
00EEE0
007FC0
003180
00C180
00C180
00C180
00C600
01FF00
03BB80
020200
000000
000000
000000
000000
000000
000000
000000
000000
000000
000000
000000
ENDCHAR
STARTCHAR yen
ENCODING 165
SWIDTH 448 0
DWIDTH 13 0
BBX 22 29 -1 -6
BITMAP
000000
000000
000000
000000
000000
000000
00C030
00C030
00C0C0
006180
006180
006600
003C00
003C00
03FF00
003000
003000
07FE00
006000
006000
00C000
00C000
00C000
000000
000000
000000
000000
000000
000000
ENDCHAR
STARTCHAR brokenbar
ENCODING 166
SWIDTH 206 0
DWIDTH 6 0
BBX 15 29 -1 -6
BITMAP
0000
0000
0000
0000
0000
0000
0030
0030
0060
0060
0060
00C0
00C0
0000
0000
0000
0180
0300
0300
0300
0600
0600
0600
0000
0000
0000
0000
0000
0000
ENDCHAR
STARTCHAR section
ENCODING 167
SWIDTH 448 0
DWIDTH 13 0
BBX 22 29 -1 -6
BITMAP
000000
000000
000000
000000
000000
000F80
001FC0
0038E0
0060C0
0070C0
003800
00F800
01DC00
018E00
030E00
038700
01C380
01C300
00E300
007700
007C00
003800
061C00
0C1800
0E3800
07F000
07C000
000000
000000
ENDCHAR
STARTCHAR dieresis
ENCODING 168
SWIDTH 275 0
DWIDTH 8 0
BBX 17 29 -1 -6
BITMAP
000000
000000
000000
000000
000000
000000
006600
006600
000000
000000
000000
000000
000000
000000
000000
000000
000000
000000
000000
000000
000000
000000
000000
000000
000000
000000
000000
000000
000000
ENDCHAR
STARTCHAR copyright
ENCODING 191
SWIDTH 689 0
DWIDTH 20 0
BBX 29 29 -1 -6
BITMAP
00000000
00000000
00000000
00000000
00000000
00000000
0001F800
00070E00
00180600
0031E300
00233100
00CC3300
008C3100
008C0100
01180200
01180200
01186200
0330CC00
01198800
018F1800
01806000
00E1C000
003F0000
00000000
00000000
00000000
00000000
00000000
00000000
ENDCHAR
STARTCHAR ordfeminine
ENCODING 170
SWIDTH 275 0
DWIDTH 8 0
BBX 17 29 -1 -6
BITMAP
000000
000000
000000
000000
000000
000000
003C00
006600
00CC00
003C00
006C00
019800
019800
00EC00
000000
03F800
03F800
000000
000000
000000
000000
000000
000000
000000
000000
000000
000000
000000
000000
ENDCHAR
STARTCHAR guillemotleft
ENCODING 171
SWIDTH 448 0
DWIDTH 13 0
BBX 22 29 -1 -6
BITMAP
000000
000000
000000
000000
000000
000000
000000
000000
000000
000000
000000
000000
000000
001080
006300
00C600
018C00
031800
018C00
00C600
008400
000000
000000
000000
000000
000000
000000
000000
000000
ENDCHAR
STARTCHAR logicalnot
ENCODING 172
SWIDTH 482 0
DWIDTH 14 0
BBX 23 29 -1 -6
BITMAP
000000
000000
000000
000000
000000
000000
000000
000000
000000
000000
000000
000000
000000
01FFC0
03FF80
000180
000180
000300
000300
000000
000000
000000
000000
000000
000000
000000
000000
000000
000000
ENDCHAR
STARTCHAR hyphen
ENCODING 173
SWIDTH 275 0
DWIDTH 8 0
BBX 17 29 -1 -6
BITMAP
000000
000000
000000
000000
000000
000000
000000
000000
000000
000000
000000
000000
000000
000000
000000
000000
03F000
07E000
000000
000000
000000
000000
000000
000000
000000
000000
000000
000000
000000
ENDCHAR
STARTCHAR registered
ENCODING 174
SWIDTH 689 0
DWIDTH 20 0
BBX 29 29 -1 -6
BITMAP
00000000
00000000
00000000
00000000
00000000
00000000
0001F800
00070E00
00180600
0037E300
00263100
00CC3300
008C3100
008C6100
011F8200
0118C200
01186200
0330CC00
0130C800
01B0D800
01806000
00E1C000
003F0000
00000000
00000000
00000000
00000000
00000000
00000000
ENDCHAR
STARTCHAR macron
ENCODING 175
SWIDTH 448 0
DWIDTH 13 0
BBX 22 29 -1 -6
BITMAP
000000
000000
000000
007FFC
007FFC
000000
000000
000000
000000
000000
000000
000000
000000
000000
000000
000000
000000
000000
000000
000000
000000
000000
000000
000000
000000
000000
000000
000000
000000
ENDCHAR
STARTCHAR degree
ENCODING 156
SWIDTH 275 0
DWIDTH 8 0
BBX 17 29 -1 -6
BITMAP
000000
000000
000000
000000
000000
000000
001800
003C00
00CC00
00CC00
007800
006000
000000
000000
000000
000000
000000
000000
000000
000000
000000
000000
000000
000000
000000
000000
000000
000000
000000
ENDCHAR
STARTCHAR plusminus
ENCODING 177
SWIDTH 482 0
DWIDTH 14 0
BBX 23 29 -1 -6
BITMAP
000000
000000
000000
000000
000000
000000
000000
000300
000600
000600
000600
000C00
01FFE0
01FFE0
001800
001800
001800
003000
003000
000000
000000
0FFF00
0FFF00
000000
000000
000000
000000
000000
000000
ENDCHAR
STARTCHAR twosuperior
ENCODING 157
SWIDTH 241 0
DWIDTH 7 0
BBX 16 29 -1 -6
BITMAP
0000
0000
0000
0000
0000
0000
003C
0066
000C
0018
0030
00C0
0180
01F8
0000
0000
0000
0000
0000
0000
0000
0000
0000
0000
0000
0000
0000
0000
0000
ENDCHAR
STARTCHAR threesuperior
ENCODING 179
SWIDTH 241 0
DWIDTH 7 0
BBX 16 29 -1 -6
BITMAP
0000
0000
0000
0000
0000
0000
003C
0066
000C
0038
000C
0018
0198
00F0
0000
0000
0000
0000
0000
0000
0000
0000
0000
0000
0000
0000
0000
0000
0000
ENDCHAR
STARTCHAR acute
ENCODING 180
SWIDTH 275 0
DWIDTH 8 0
BBX 17 29 -1 -6
BITMAP
000000
000000
000000
000000
000000
000000
000E00
001C00
006000
008000
000000
000000
000000
000000
000000
000000
000000
000000
000000
000000
000000
000000
000000
000000
000000
000000
000000
000000
000000
ENDCHAR
STARTCHAR mu
ENCODING 181
SWIDTH 448 0
DWIDTH 13 0
BBX 22 29 -1 -6
BITMAP
000000
000000
000000
000000
000000
000000
000000
000000
000000
000000
000000
00C180
00C180
00C180
018300
018300
018300
030600
030600
030600
071C00
07FE00
06E600
0C0000
0C0000
0C0000
180000
000000
000000
ENDCHAR
STARTCHAR paragraph
ENCODING 182
SWIDTH 413 0
DWIDTH 12 0
BBX 21 29 -1 -6
BITMAP
000000
000000
000000
000000
000000
000000
000000
000000
001FC0
007C80
007C80
01F900
01F900
00F900
01F200
007200
001200
002400
002400
002400
004800
004800
004800
009000
009000
009000
000000
000000
000000
ENDCHAR
STARTCHAR periodcentered
ENCODING 183
SWIDTH 206 0
DWIDTH 6 0
BBX 15 29 -1 -6
BITMAP
0000
0000
0000
0000
0000
0000
0000
0000
0000
0000
0000
0000
0000
00C0
0180
0000
0000
0000
0000
0000
0000
0000
0000
0000
0000
0000
0000
0000
0000
ENDCHAR
STARTCHAR cedilla
ENCODING 184
SWIDTH 275 0
DWIDTH 8 0
BBX 17 29 -1 -6
BITMAP
000000
000000
000000
000000
000000
000000
000000
000000
000000
000000
000000
000000
000000
000000
000000
000000
000000
000000
000000
000000
000000
000000
000000
040000
070000
018000
030000
1E0000
000000
ENDCHAR
STARTCHAR onesuperior
ENCODING 185
SWIDTH 241 0
DWIDTH 7 0
BBX 16 29 -1 -6
BITMAP
0000
0000
0000
0000
0000
0000
0018
0078
0030
0030
0030
0060
0060
0060
0000
0000
0000
0000
0000
0000
0000
0000
0000
0000
0000
0000
0000
0000
0000
ENDCHAR
STARTCHAR ordmasculine
ENCODING 186
SWIDTH 275 0
DWIDTH 8 0
BBX 17 29 -1 -6
BITMAP
000000
000000
000000
000000
000000
000000
001C00
003600
00C600
00C600
00C600
018C00
00D800
007000
000000
03F800
03F800
000000
000000
000000
000000
000000
000000
000000
000000
000000
000000
000000
000000
ENDCHAR
STARTCHAR guillemotright
ENCODING 187
SWIDTH 448 0
DWIDTH 13 0
BBX 22 29 -1 -6
BITMAP
000000
000000
000000
000000
000000
000000
000000
000000
000000
000000
000000
000000
000000
008400
018C00
00C600
006300
00C600
018C00
031800
042000
000000
000000
000000
000000
000000
000000
000000
000000
ENDCHAR
STARTCHAR onequarter
ENCODING 188
SWIDTH 620 0
DWIDTH 18 0
BBX 27 29 -1 -6
BITMAP
00000000
00000000
00000000
00000000
00000000
00000000
00180600
00780600
00301800
00303000
00303000
0060C000
00618000
00618000
00060000
000C0C00
000C1C00
00307800
0060D800
00619800
0183F000
03003000
03003000
00000000
00000000
00000000
00000000
00000000
00000000
ENDCHAR
STARTCHAR onehalf
ENCODING 189
SWIDTH 620 0
DWIDTH 18 0
BBX 27 29 -1 -6
BITMAP
00000000
00000000
00000000
00000000
00000000
00000000
00180600
00780600
00301800
00303000
00303000
0060C000
00618000
00618000
00060000
000C7800
000CCC00
00301800
00603000
00606000
01818000
03030000
0303F000
00000000
00000000
00000000
00000000
00000000
00000000
ENDCHAR
STARTCHAR threequarters
ENCODING 190
SWIDTH 620 0
DWIDTH 18 0
BBX 27 29 -1 -6
BITMAP
00000000
00000000
00000000
00000000
00000000
00000000
003C0600
00660600
000C1800
00383000
000C3000
0018C000
01998000
00F18000
00060000
000C0C00
000C1C00
00307800
0060D800
00619800
0183F000
03003000
03003000
00000000
00000000
00000000
00000000
00000000
00000000
ENDCHAR
STARTCHAR questiondown
ENCODING 169
SWIDTH 413 0
DWIDTH 12 0
BBX 21 29 -1 -6
BITMAP
000000
000000
000000
000000
000000
000000
000600
000600
000000
000000
000000
001800
001800
001800
007000
00E000
01C000
070000
060000
060600
061C00
07F800
01E000
000000
000000
000000
000000
000000
000000
ENDCHAR
STARTCHAR cyr-A
ENCODING 225
SWIDTH 517 0
DWIDTH 15 0
BBX 24 29 -1 -6
BITMAP
000000
000000
000000
000000
000000
000000
000380
000380
000F80
000D80
000D80
003B80
003180
003180
00E380
00C180
01C1C0
03FF80
03FF80
0701C0
0C0180
1C01C0
1C01C0
000000
000000
000000
000000
000000
000000
ENDCHAR
STARTCHAR cyr-Be
ENCODING 226
SWIDTH 551 0
DWIDTH 16 0
BBX 25 29 -1 -6
BITMAP
00000000
00000000
00000000
00000000
00000000
00000000
003FFC00
003FFC00
00600000
00600000
00600000
00C00000
00C00000
00FFE000
01FFE000
01806000
01803000
03006000
03006000
03006000
06018000
07FF8000
07FE0000
00000000
00000000
00000000
00000000
00000000
00000000
ENDCHAR
STARTCHAR cyr-Ve
ENCODING 247
SWIDTH 551 0
DWIDTH 16 0
BBX 25 29 -1 -6
BITMAP
00000000
00000000
00000000
00000000
00000000
00000000
003FE000
003FF800
00603000
00601800
00601800
00C03000
00C07000
00FFE000
01FFE000
01806000
01803000
03006000
03006000
03006000
06018000
07FF8000
07FE0000
00000000
00000000
00000000
00000000
00000000
00000000
ENDCHAR
STARTCHAR cyr-Ghe
ENCODING 231
SWIDTH 551 0
DWIDTH 16 0
BBX 25 29 -1 -6
BITMAP
00000000
00000000
00000000
00000000
00000000
00000000
003FFE00
003FFE00
00600000
00600000
00600000
00C00000
00C00000
00C00000
01800000
01800000
01800000
03000000
03000000
03000000
06000000
06000000
06000000
00000000
00000000
00000000
00000000
00000000
00000000
ENDCHAR
STARTCHAR cyr-De
ENCODING 228
SWIDTH 620 0
DWIDTH 18 0
BBX 27 29 -1 -6
BITMAP
00000000
00000000
00000000
00000000
00000000
00000000
0007FE00
0007FE00
000C0C00
000C0C00
000C0C00
00181800
00181800
00181800
00303000
00303000
00303000
00606000
00606000
00606000
0180C000
0FFFF000
0FFFF000
18006000
18006000
00000000
00000000
00000000
00000000
ENDCHAR
STARTCHAR cyr-Ie
ENCODING 229
SWIDTH 551 0
DWIDTH 16 0
BBX 25 29 -1 -6
BITMAP
00000000
00000000
00000000
00000000
00000000
00000000
003FFE00
003FFE00
00600000
00600000
00600000
00C00000
00C00000
00FFE000
01FFC000
01800000
01800000
03000000
03000000
03000000
06000000
07FFC000
07FFC000
00000000
00000000
00000000
00000000
00000000
00000000
ENDCHAR
STARTCHAR cyr-Zhe
ENCODING 246
SWIDTH 827 0
DWIDTH 24 0
BBX 33 29 -1 -6
BITMAP
0000000000
0000000000
0000000000
0000000000
0000000000
0000000000
0060180600
0070180E00
0070303800
0038307000
001C30E000
001C638000
000E670000
00076E0000
000FFC0000
000FFC0000
001CCE0000
00718E0000
00E1870000
01C1838000
0703038000
0E0301C000
1C0300E000
0000000000
0000000000
0000000000
0000000000
0000000000
0000000000
ENDCHAR
STARTCHAR cyr-Ze
ENCODING 250
SWIDTH 551 0
DWIDTH 16 0
BBX 25 29 -1 -6
BITMAP
00000000
00000000
00000000
00000000
00000000
00000000
0007E000
001FF800
00703800
00601800
00001800
00003000
00007000
0007E000
000FC000
0000E000
00007000
00006000
00006000
06006000
0E01C000
07FF8000
01FF0000
00000000
00000000
00000000
00000000
00000000
00000000
ENDCHAR
STARTCHAR cyr-I
ENCODING 233
SWIDTH 620 0
DWIDTH 18 0
BBX 27 29 -1 -6
BITMAP
00000000
00000000
00000000
00000000
00000000
00000000
00300300
00300300
00600600
00600E00
00601E00
00C07C00
00C0EC00
00C1CC00
01871800
018E1800
019C1800
03703000
03E03000
03C03000
07006000
06006000
06006000
00000000
00000000
00000000
00000000
00000000
00000000
ENDCHAR
STARTCHAR cyr-I-short
ENCODING 234
SWIDTH 620 0
DWIDTH 18 0
BBX 27 29 -1 -6
BITMAP
00000000
00000000
00000000
00039C00
0001F800
0001E000
00300300
00300300
00600600
00600E00
00601E00
00C07C00
00C0EC00
00C1CC00
01871800
018E1800
019C1800
03703000
03E03000
03C03000
07006000
06006000
06006000
00000000
00000000
00000000
00000000
00000000
00000000
ENDCHAR
STARTCHAR cyr-Ka
ENCODING 235
SWIDTH 551 0
DWIDTH 16 0
BBX 25 29 -1 -6
BITMAP
00000000
00000000
00000000
00000000
00000000
00000000
00300E00
00301C00
00607000
0060E000
0061C000
00C70000
00CE0000
00DF0000
01FE0000
01E70000
01C38000
03030000
03038000
0301C000
06018000
0601C000
0600E000
00000000
00000000
00000000
00000000
00000000
00000000
ENDCHAR
STARTCHAR cyr-El
ENCODING 236
SWIDTH 517 0
DWIDTH 15 0
BBX 24 29 -1 -6
BITMAP
000000
000000
000000
000000
000000
000000
001FF8
001FF8
003030
003030
003030
006060
006060
006060
00C0C0
00C0C0
00C0C0
018180
018180
018180
030300
0F0300
0E0300
000000
000000
000000
000000
000000
000000
ENDCHAR
STARTCHAR cyr-Em
ENCODING 237
SWIDTH 689 0
DWIDTH 20 0
BBX 29 29 -1 -6
BITMAP
00000000
00000000
00000000
00000000
00000000
00000000
003000C0
003000C0
00700380
00700380
00780780
00F00F00
00F81F00
00D81B00
01B87600
01986600
019CE600
03198C00
031F8C00
030F0C00
061E1800
060C1800
060C1800
00000000
00000000
00000000
00000000
00000000
00000000
ENDCHAR
STARTCHAR cyr-En
ENCODING 238
SWIDTH 586 0
DWIDTH 17 0
BBX 26 29 -1 -6
BITMAP
00000000
00000000
00000000
00000000
00000000
00000000
00300600
00300600
00600C00
00600C00
00600C00
00C01800
00C01800
00FFF800
01FFF000
01803000
01803000
03006000
03006000
03006000
0600C000
0600C000
0600C000
00000000
00000000
00000000
00000000
00000000
00000000
ENDCHAR
STARTCHAR cyr-O
ENCODING 239
SWIDTH 655 0
DWIDTH 19 0
BBX 28 29 -1 -6
BITMAP
00000000
00000000
00000000
00000000
00000000
00000000
0003F800
000FFE00
003C1E00
00700700
00600300
01C00700
01800300
01800300
03000600
03000600
03000600
07001C00
03001800
03803800
03C1E000
01FFC000
007F0000
00000000
00000000
00000000
00000000
00000000
00000000
ENDCHAR
STARTCHAR cyr-Pe
ENCODING 240
SWIDTH 586 0
DWIDTH 17 0
BBX 26 29 -1 -6
BITMAP
00000000
00000000
00000000
00000000
00000000
00000000
003FFE00
003FFE00
00600C00
00600C00
00600C00
00C01800
00C01800
00C01800
01803000
01803000
01803000
03006000
03006000
03006000
0600C000
0600C000
0600C000
00000000
00000000
00000000
00000000
00000000
00000000
ENDCHAR
STARTCHAR cyr-Er
ENCODING 242
SWIDTH 551 0
DWIDTH 16 0
BBX 25 29 -1 -6
BITMAP
00000000
00000000
00000000
00000000
00000000
00000000
003FF800
003FFE00
00600C00
00600600
00600600
00C00C00
00C00C00
00C01800
01FFF000
01FFC000
01800000
03000000
03000000
03000000
06000000
06000000
06000000
00000000
00000000
00000000
00000000
00000000
00000000
ENDCHAR
STARTCHAR cyr-Es
ENCODING 243
SWIDTH 586 0
DWIDTH 17 0
BBX 26 29 -1 -6
BITMAP
00000000
00000000
00000000
00000000
00000000
00000000
0003F800
000FFE00
003C1E00
00700600
00600300
01C00600
01800000
01800000
03000000
03000000
03000000
07001800
03001800
03803000
03C1E000
01FFC000
007F0000
00000000
00000000
00000000
00000000
00000000
00000000
ENDCHAR
STARTCHAR cyr-Te
ENCODING 244
SWIDTH 551 0
DWIDTH 16 0
BBX 25 29 -1 -6
BITMAP
00000000
00000000
00000000
00000000
00000000
00000000
00FFFF00
00FFFF00
00030000
00030000
00030000
00060000
00060000
00060000
000C0000
000C0000
000C0000
00180000
00180000
00180000
00300000
00300000
00300000
00000000
00000000
00000000
00000000
00000000
00000000
ENDCHAR
STARTCHAR cyr-U
ENCODING 245
SWIDTH 482 0
DWIDTH 14 0
BBX 23 29 -1 -6
BITMAP
000000
000000
000000
000000
000000
000000
006018
006018
00E070
006060
006060
00E1C0
006180
007380
006600
006600
003C00
007800
007800
007000
00E000
07C000
078000
000000
000000
000000
000000
000000
000000
ENDCHAR
STARTCHAR cyr-Ef
ENCODING 230
SWIDTH 689 0
DWIDTH 20 0
BBX 29 29 -1 -6
BITMAP
00000000
00000000
00000000
00000000
00000000
00000000
0003FC00
000FFF00
003CCF00
0070C380
0060C180
01C18380
01818180
01818180
03030300
03830700
01830600
03861C00
01E67800
00FFF000
007F8000
000C0000
000C0000
00000000
00000000
00000000
00000000
00000000
00000000
ENDCHAR
STARTCHAR cyr-Kha
ENCODING 232
SWIDTH 586 0
DWIDTH 17 0
BBX 26 29 -1 -6
BITMAP
00000000
00000000
00000000
00000000
00000000
00000000
00C00180
00E00380
00E00E00
00701C00
00383800
0038E000
001DC000
000F8000
000E0000
001F0000
003B8000
00E38000
01C1C000
0380E000
0E00E000
1C007000
18003000
00000000
00000000
00000000
00000000
00000000
00000000
ENDCHAR
STARTCHAR cyr-Tse
ENCODING 227
SWIDTH 586 0
DWIDTH 17 0
BBX 26 29 -1 -6
BITMAP
00000000
00000000
00000000
00000000
00000000
00000000
00300600
00300600
00600C00
00600C00
00600C00
00C01800
00C01800
00C01800
01803000
01803000
01803000
03006000
03006000
03006000
0600C000
07FFE000
07FFE000
0000C000
0000C000
00000000
00000000
00000000
00000000
ENDCHAR
STARTCHAR cyr-Che
ENCODING 254
SWIDTH 586 0
DWIDTH 17 0
BBX 26 29 -1 -6
BITMAP
00000000
00000000
00000000
00000000
00000000
00000000
00300600
00300600
00600C00
00600C00
00600C00
00C01800
00C01800
00FFF800
00FFF000
00003000
00003000
00006000
00006000
00006000
0000C000
0000C000
0000C000
00000000
00000000
00000000
00000000
00000000
00000000
ENDCHAR
STARTCHAR cyr-Sha
ENCODING 251
SWIDTH 758 0
DWIDTH 22 0
BBX 31 29 -1 -6
BITMAP
00000000
00000000
00000000
00000000
00000000
00000000
00603018
00603018
00C06030
00C06030
00C06030
0180C060
0180C060
0180C060
030180C0
030180C0
030180C0
06030180
06030180
06030180
0C060300
0FFFFF00
0FFFFF00
00000000
00000000
00000000
00000000
00000000
00000000
ENDCHAR
STARTCHAR cyr-Shcha
ENCODING 253
SWIDTH 793 0
DWIDTH 23 0
BBX 32 29 -1 -6
BITMAP
00000000
00000000
00000000
00000000
00000000
00000000
00603018
00603018
00C06030
00C06030
00C06030
0180C060
0180C060
0180C060
030180C0
030180C0
030180C0
06030180
06030180
06030180
0C060300
0FFFFF80
0FFFFF80
00000300
00000300
00000000
00000000
00000000
00000000
ENDCHAR
STARTCHAR cyr-Ier
ENCODING 255
SWIDTH 689 0
DWIDTH 20 0
BBX 29 29 -1 -6
BITMAP
00000000
00000000
00000000
00000000
00000000
00000000
007C0000
007C0000
00180000
00180000
00180000
00300000
00300000
003FFE00
007FFE00
00600700
00600300
00C00600
00C00600
00C00600
01801C00
01FFF800
01FFF000
00000000
00000000
00000000
00000000
00000000
00000000
ENDCHAR
STARTCHAR cyr-Iery
ENCODING 249
SWIDTH 758 0
DWIDTH 22 0
BBX 31 29 -1 -6
BITMAP
00000000
00000000
00000000
00000000
00000000
00000000
00300030
00300030
00600060
00600060
00600060
00C000C0
00C000C0
00FFF8C0
01FFF980
01801D80
01800D80
03001B00
03001B00
03001B00
06007600
07FFE600
07FFC600
00000000
00000000
00000000
00000000
00000000
00000000
ENDCHAR
STARTCHAR cyr-Ierik
ENCODING 248
SWIDTH 620 0
DWIDTH 18 0
BBX 27 29 -1 -6
BITMAP
00000000
00000000
00000000
00000000
00000000
00000000
00300000
00300000
00600000
00600000
00600000
00C00000
00C00000
00FFF800
01FFF800
01801C00
01800C00
03001800
03001800
03001800
06007000
07FFE000
07FFC000
00000000
00000000
00000000
00000000
00000000
00000000
ENDCHAR
STARTCHAR cyr-E-rev
ENCODING 252
SWIDTH 586 0
DWIDTH 17 0
BBX 26 29 -1 -6
BITMAP
00000000
00000000
00000000
00000000
00000000
00000000
000FE000
003FF800
00F07800
00C01C00
00000C00
00001C00
00000C00
0007FC00
000FF800
00001800
00001800
00007000
00006000
0600E000
0F078000
07FF0000
01FC0000
00000000
00000000
00000000
00000000
00000000
00000000
ENDCHAR
STARTCHAR cyr-Yu
ENCODING 224
SWIDTH 758 0
DWIDTH 22 0
BBX 31 29 -1 -6
BITMAP
00000000
00000000
00000000
00000000
00000000
00000000
00303F00
0030FFC0
0063C3C0
006700E0
00660060
00DC00E0
00D80060
00F80060
01F000C0
01B000C0
01B000C0
03700380
03300300
03380700
063C3C00
061FF800
0607E000
00000000
00000000
00000000
00000000
00000000
00000000
ENDCHAR
STARTCHAR cyr-Ya
ENCODING 241
SWIDTH 586 0
DWIDTH 17 0
BBX 26 29 -1 -6
BITMAP
00000000
00000000
00000000
00000000
00000000
00000000
001FFE00
003FFE00
00E00C00
00C00C00
00C00C00
01801800
01801800
01801800
03803000
01FFF000
007FF000
00386000
00706000
00E06000
0380C000
0700C000
0E00C000
00000000
00000000
00000000
00000000
00000000
00000000
ENDCHAR
STARTCHAR cyr-a
ENCODING 193
SWIDTH 448 0
DWIDTH 13 0
BBX 22 29 -1 -6
BITMAP
000000
000000
000000
000000
000000
000000
000000
000000
000000
000000
000000
003C00
00FF00
00C300
000300
000700
007F00
03F600
070600
060600
0E1C00
07FF00
03E700
000000
000000
000000
000000
000000
000000
ENDCHAR
STARTCHAR cyr-be
ENCODING 194
SWIDTH 482 0
DWIDTH 14 0
BBX 23 29 -1 -6
BITMAP
000000
000000
000000
000000
000000
000000
000000
000070
001FC0
007F80
00E000
01BF00
01FFC0
01C0C0
0381C0
0300C0
0300C0
060180
060180
060380
060600
07FE00
01F800
000000
000000
000000
000000
000000
000000
ENDCHAR
STARTCHAR cyr-ve
ENCODING 215
SWIDTH 448 0
DWIDTH 13 0
BBX 22 29 -1 -6
BITMAP
000000
000000
000000
000000
000000
000000
000000
000000
000000
000000
000000
00FF80
00FFC0
00C0C0
018180
018180
01FF00
03FF00
030300
030300
060600
07FE00
07FC00
000000
000000
000000
000000
000000
000000
ENDCHAR
STARTCHAR cyr-ghe
ENCODING 199
SWIDTH 413 0
DWIDTH 12 0
BBX 21 29 -1 -6
BITMAP
000000
000000
000000
000000
000000
000000
000000
000000
000000
000000
000000
00FF80
00FF80
00C000
018000
018000
018000
030000
030000
030000
060000
060000
060000
000000
000000
000000
000000
000000
000000
ENDCHAR
STARTCHAR cyr-de
ENCODING 196
SWIDTH 517 0
DWIDTH 15 0
BBX 24 29 -1 -6
BITMAP
000000
000000
000000
000000
000000
000000
000000
000000
000000
000000
000000
003FC0
003FC0
0030C0
006180
006180
006180
00C300
00C300
00C300
030600
0FFF80
0FFF80
180300
180300
000000
000000
000000
000000
ENDCHAR
STARTCHAR cyr-ie
ENCODING 197
SWIDTH 482 0
DWIDTH 14 0
BBX 23 29 -1 -6
BITMAP
000000
000000
000000
000000
000000
000000
000000
000000
000000
000000
000000
001E00
007F80
00E1C0
018180
0300C0
03FFC0
07FF80
060000
030000
070700
03FE00
00F800
000000
000000
000000
000000
000000
000000
ENDCHAR
STARTCHAR cyr-zhe
ENCODING 214
SWIDTH 689 0
DWIDTH 20 0
BBX 29 29 -1 -6
BITMAP
00000000
00000000
00000000
00000000
00000000
00000000
00000000
00000000
00000000
00000000
00000000
01818180
01C18380
00E18700
00E31C00
00733800
003FF000
003FC000
0076E000
00E67000
038C7000
070C3800
0E0C1C00
00000000
00000000
00000000
00000000
00000000
00000000
ENDCHAR
STARTCHAR cyr-z
ENCODING 218
SWIDTH 413 0
DWIDTH 12 0
BBX 21 29 -1 -6
BITMAP
000000
000000
000000
000000
000000
000000
000000
000000
000000
000000
000000
00FF00
01FF80
018180
000300
000300
003E00
007E00
000600
000600
0C0C00
0FFC00
07F800
000000
000000
000000
000000
000000
000000
ENDCHAR
STARTCHAR cyr-i
ENCODING 201
SWIDTH 413 0
DWIDTH 12 0
BBX 21 29 -1 -6
BITMAP
000000
000000
000000
000000
000000
000000
000000
000000
000000
000000
000000
018180
018180
018380
030F00
031F00
033B00
06E600
07C600
078600
0E0C00
0C0C00
0C0C00
000000
000000
000000
000000
000000
000000
ENDCHAR
STARTCHAR cyr-i-short
ENCODING 202
SWIDTH 413 0
DWIDTH 12 0
BBX 21 29 -1 -6
BITMAP
000000
000000
000000
000000
000000
000000
000000
000000
003300
003F00
001E00
018180
018180
018380
030F00
031F00
033B00
06E600
07C600
078600
0E0C00
0C0C00
0C0C00
000000
000000
000000
000000
000000
000000
ENDCHAR
STARTCHAR cyr-ka
ENCODING 203
SWIDTH 413 0
DWIDTH 12 0
BBX 21 29 -1 -6
BITMAP
000000
000000
000000
000000
000000
000000
000000
000000
000000
000000
000000
00C380
00C700
00CE00
01B800
01F000
01F800
03B800
031800
031C00
061C00
060C00
060E00
000000
000000
000000
000000
000000
000000
ENDCHAR
STARTCHAR cyr-el
ENCODING 204
SWIDTH 448 0
DWIDTH 13 0
BBX 22 29 -1 -6
BITMAP
000000
000000
000000
000000
000000
000000
000000
000000
000000
000000
000000
007F80
007F80
006180
00C300
00C300
00C300
018600
018600
018600
030C00
070C00
0E0C00
000000
000000
000000
000000
000000
000000
ENDCHAR
STARTCHAR cyr-em
ENCODING 205
SWIDTH 551 0
DWIDTH 16 0
BBX 25 29 -1 -6
BITMAP
00000000
00000000
00000000
00000000
00000000
00000000
00000000
00000000
00000000
00000000
00000000
01801800
01C03800
01E07800
03E1F000
0373B000
033F3000
063C6000
06186000
06006000
0C00C000
0C00C000
0C00C000
00000000
00000000
00000000
00000000
00000000
00000000
ENDCHAR
STARTCHAR cyr-en
ENCODING 206
SWIDTH 448 0
DWIDTH 13 0
BBX 22 29 -1 -6
BITMAP
000000
000000
000000
000000
000000
000000
000000
000000
000000
000000
000000
00C180
00C180
00C180
018300
018300
01FF00
03FE00
030600
030600
060C00
060C00
060C00
000000
000000
000000
000000
000000
000000
ENDCHAR
STARTCHAR cyr-o
ENCODING 207
SWIDTH 482 0
DWIDTH 14 0
BBX 23 29 -1 -6
BITMAP
000000
000000
000000
000000
000000
000000
000000
000000
000000
000000
000000
003F00
00FFC0
00E1C0
0381C0
0300C0
0300C0
060180
060180
070380
070E00
07FE00
01F800
000000
000000
000000
000000
000000
000000
ENDCHAR
STARTCHAR cyr-pe
ENCODING 208
SWIDTH 448 0
DWIDTH 13 0
BBX 22 29 -1 -6
BITMAP
000000
000000
000000
000000
000000
000000
000000
000000
000000
000000
000000
00FF80
00FF80
00C180
018300
018300
018300
030600
030600
030600
060C00
060C00
060C00
000000
000000
000000
000000
000000
000000
ENDCHAR
STARTCHAR cyr-er
ENCODING 210
SWIDTH 482 0
DWIDTH 14 0
BBX 23 29 -1 -6
BITMAP
000000
000000
000000
000000
000000
000000
000000
000000
000000
000000
000000
00DF00
00FFC0
00E1C0
0181C0
0180C0
0180C0
030180
030180
030380
070E00
07FE00
06F800
0C0000
0C0000
0C0000
180000
180000
000000
ENDCHAR
STARTCHAR cyr-es
ENCODING 211
SWIDTH 413 0
DWIDTH 12 0
BBX 21 29 -1 -6
BITMAP
000000
000000
000000
000000
000000
000000
000000
000000
000000
000000
000000
001E00
007F80
00E1C0
018180
030000
030000
060000
060000
030300
070E00
03FC00
00F000
000000
000000
000000
000000
000000
000000
ENDCHAR
STARTCHAR cyr-te
ENCODING 212
SWIDTH 413 0
DWIDTH 12 0
BBX 21 29 -1 -6
BITMAP
000000
000000
000000
000000
000000
000000
000000
000000
000000
000000
000000
03FFC0
03FFC0
001800
003000
003000
003000
006000
006000
006000
00C000
00C000
00C000
000000
000000
000000
000000
000000
000000
ENDCHAR
STARTCHAR cyr-u
ENCODING 213
SWIDTH 379 0
DWIDTH 11 0
BBX 20 29 -1 -6
BITMAP
000000
000000
000000
000000
000000
000000
000000
000000
000000
000000
000000
030180
030180
038380
030600
038E00
018C00
031800
03B800
01B000
03E000
01C000
01C000
030000
070000
060000
7C0000
780000
000000
ENDCHAR
STARTCHAR cyr-ef
ENCODING 198
SWIDTH 551 0
DWIDTH 16 0
BBX 25 29 -1 -6
BITMAP
00000000
00000000
00000000
00000000
00000000
00000000
00000000
00000000
00000000
00000000
00030000
003FC000
00FFF000
00E67000
038C7000
030C3000
030C3000
06186000
06186000
0718E000
07338000
07FF8000
01FE0000
00600000
00600000
00600000
00C00000
00C00000
00000000
ENDCHAR
STARTCHAR cyr-kha
ENCODING 200
SWIDTH 379 0
DWIDTH 11 0
BBX 20 29 -1 -6
BITMAP
000000
000000
000000
000000
000000
000000
000000
000000
000000
000000
000000
030180
038380
01C700
01DC00
00F800
007000
00E000
01F000
03B800
0E3800
1C1C00
180C00
000000
000000
000000
000000
000000
000000
ENDCHAR
STARTCHAR cyr-tse
ENCODING 195
SWIDTH 448 0
DWIDTH 13 0
BBX 22 29 -1 -6
BITMAP
000000
000000
000000
000000
000000
000000
000000
000000
000000
000000
000000
00C180
00C180
00C180
018300
018300
018300
030600
030600
030600
060C00
07FE00
07FE00
000C00
000C00
000000
000000
000000
000000
ENDCHAR
STARTCHAR cyr-che
ENCODING 222
SWIDTH 448 0
DWIDTH 13 0
BBX 22 29 -1 -6
BITMAP
000000
000000
000000
000000
000000
000000
000000
000000
000000
000000
000000
00C180
00C180
00C180
018300
018300
01FF00
01FE00
000600
000600
000C00
000C00
000C00
000000
000000
000000
000000
000000
000000
ENDCHAR
STARTCHAR cyr-sha
ENCODING 219
SWIDTH 620 0
DWIDTH 18 0
BBX 27 29 -1 -6
BITMAP
00000000
00000000
00000000
00000000
00000000
00000000
00000000
00000000
00000000
00000000
00000000
01830600
01830600
01830600
03060C00
03060C00
03060C00
060C1800
060C1800
060C1800
0C183000
0FFFF000
0FFFF000
00000000
00000000
00000000
00000000
00000000
00000000
ENDCHAR
STARTCHAR cyr-shcha
ENCODING 221
SWIDTH 655 0
DWIDTH 19 0
BBX 28 29 -1 -6
BITMAP
00000000
00000000
00000000
00000000
00000000
00000000
00000000
00000000
00000000
00000000
00000000
01830600
01830600
01830600
03060C00
03060C00
03060C00
060C1800
060C1800
060C1800
0C183000
0FFFF800
0FFFF800
00003000
00003000
00000000
00000000
00000000
00000000
ENDCHAR
STARTCHAR cyr-ier
ENCODING 223
SWIDTH 517 0
DWIDTH 15 0
BBX 24 29 -1 -6
BITMAP
000000
000000
000000
000000
000000
000000
000000
000000
000000
000000
000000
01E000
01E000
006000
00C000
00FF80
00FFC0
0181C0
0180C0
0180C0
030380
03FF00
03FE00
000000
000000
000000
000000
000000
000000
ENDCHAR
STARTCHAR cyr-iery
ENCODING 217
SWIDTH 551 0
DWIDTH 16 0
BBX 25 29 -1 -6
BITMAP
00000000
00000000
00000000
00000000
00000000
00000000
00000000
00000000
00000000
00000000
00000000
01801800
01801800
01801800
03003000
03FE3000
03FF3000
06076000
06036000
06036000
0C0EC000
0FFCC000
0FF8C000
00000000
00000000
00000000
00000000
00000000
00000000
ENDCHAR
STARTCHAR cyr-ierik
ENCODING 216
SWIDTH 448 0
DWIDTH 13 0
BBX 22 29 -1 -6
BITMAP
000000
000000
000000
000000
000000
000000
000000
000000
000000
000000
000000
018000
018000
018000
030000
03FE00
03FF00
060700
060300
060300
0C0E00
0FFC00
0FF800
000000
000000
000000
000000
000000
000000
ENDCHAR
STARTCHAR cyr-e-rev
ENCODING 220
SWIDTH 448 0
DWIDTH 13 0
BBX 22 29 -1 -6
BITMAP
000000
000000
000000
000000
000000
000000
000000
000000
000000
000000
000000
007E00
00FF80
01C380
000380
000180
003F80
007F00
000300
000700
0E1C00
07FC00
03F000
000000
000000
000000
000000
000000
000000
ENDCHAR
STARTCHAR cyr-yu
ENCODING 192
SWIDTH 586 0
DWIDTH 17 0
BBX 26 29 -1 -6
BITMAP
00000000
00000000
00000000
00000000
00000000
00000000
00000000
00000000
00000000
00000000
00000000
0187E000
019FF800
019C3800
03703800
03601800
03E01800
07C03000
06C03000
06E07000
0CE1C000
0CFFC000
0C3F0000
00000000
00000000
00000000
00000000
00000000
00000000
ENDCHAR
STARTCHAR cyr-ya
ENCODING 209
SWIDTH 448 0
DWIDTH 13 0
BBX 22 29 -1 -6
BITMAP
000000
000000
000000
000000
000000
000000
000000
000000
000000
000000
000000
007FC0
00FFC0
01C0C0
030180
030180
038180
03FF00
01FF00
00E300
038600
070600
0E0600
000000
000000
000000
000000
000000
000000
ENDCHAR
ENDFONT
